<?xml version="1.0" encoding="UTF-8" standalone="no"?>
<!-- Created with Inkscape (http://www.inkscape.org/) -->

<svg
   xmlns:dc="http://purl.org/dc/elements/1.1/"
   xmlns:cc="http://creativecommons.org/ns#"
   xmlns:rdf="http://www.w3.org/1999/02/22-rdf-syntax-ns#"
   xmlns:svg="http://www.w3.org/2000/svg"
   xmlns="http://www.w3.org/2000/svg"
   version="1.1"
   width="765"
   height="403.61499"
   id="svg2"
   xml:space="preserve"><metadata
     id="metadata8"><rdf:RDF><cc:Work
         rdf:about=""><dc:format>image/svg+xml</dc:format><dc:type
           rdf:resource="http://purl.org/dc/dcmitype/StillImage" /><dc:title></dc:title></cc:Work></rdf:RDF></metadata><defs
     id="defs6"><clipPath
       id="clipPath16"><path
         d="m 0,322.892 612,0 L 612,0 0,0 0,322.892 z"
         id="path18" /></clipPath></defs><g
     transform="matrix(1.25,0,0,-1.25,0,403.615)"
     id="g10"><g
       id="g12"><g
         clip-path="url(#clipPath16)"
         id="g14"><g
           transform="translate(333.1992,105.3672)"
           id="g20"><path
             d="m 0,0 -47.952,0 0,22.988 47.952,0 c 7.348,0 13.403,1.735 18.178,5.158 4.752,3.448 7.127,7.85 7.127,13.242 0,5.403 -2.375,9.828 -7.127,13.252 C 13.403,58.063 7.348,59.799 0,59.799 l -10.842,0 c -5.578,0 -10.771,0.885 -15.613,2.667 -4.827,1.769 -8.967,4.25 -12.449,7.452 -3.499,3.203 -6.248,6.999 -8.28,11.401 -2.038,4.425 -3.068,9.282 -3.068,14.534 0,5.158 1.03,9.933 3.068,14.37 2.032,4.402 4.914,8.279 8.647,11.598 3.732,3.284 8.239,5.893 13.515,7.733 5.26,1.84 11.071,2.748 17.406,2.748 l 45.486,0 0,-23.023 -46.64,0 c -5.065,0 -9.059,-1.327 -11.97,-4.017 -2.92,-2.714 -4.37,-5.916 -4.37,-9.584 0,-4.041 1.513,-7.453 4.556,-10.19 3.039,-2.771 6.988,-4.169 11.784,-4.169 l 13.533,0 c 6.091,0 11.704,-0.978 16.827,-2.934 5.147,-1.957 9.584,-4.763 13.322,-8.397 3.75,-3.61 6.673,-7.895 8.758,-12.868 2.096,-4.961 3.143,-10.388 3.143,-16.268 0,-5.893 -1.152,-11.366 -3.422,-16.373 C 41.107,19.459 37.929,15.127 33.876,11.494 29.812,7.885 24.897,5.055 19.121,3.028 13.357,0.99 6.976,0 0,0"
             id="path22"
             style="fill:#30333d;fill-opacity:1;fill-rule:nonzero;stroke:none" /></g><g
           transform="translate(405.9932,105.3672)"
           id="g24"><path
             d="M 0,0 0,89.145 23.78,78.862 23.78,0 0,0 z"
             id="path26"
             style="fill:#30333d;fill-opacity:1;fill-rule:nonzero;stroke:none" /></g><g
           transform="translate(429.7734,239.1484)"
           id="g28"><path
             d="M 0,0 -0.222,-40.13 -23.78,-30.312 -23.78,0 0,0 z"
             id="path30"
             style="fill:#30333d;fill-opacity:1;fill-rule:nonzero;stroke:none" /></g><g
           transform="translate(564.1475,105.3672)"
           id="g32"><path
             d="m 0,0 -33.293,0 -36.368,37.16 c -4.286,4.309 -6.452,8.408 -6.452,12.32 0,3.577 1.234,6.313 3.715,8.188 2.48,1.898 5.985,2.992 10.562,3.214 12.542,0.873 21.928,3.353 28.147,7.476 6.218,4.099 9.339,10.143 9.339,18.143 0,7.604 -2.387,13.299 -7.15,17.084 -4.751,3.819 -11.506,5.694 -20.251,5.694 l -26.271,0 0,-109.279 -23.781,0 0,132.302 50.611,0 c 7.232,0 13.974,-0.978 20.274,-2.935 6.277,-1.979 11.738,-4.855 16.361,-8.664 4.635,-3.796 8.269,-8.536 10.936,-14.16 2.667,-5.648 4.006,-12.135 4.006,-19.518 0,-4.401 -0.699,-8.931 -2.097,-13.601 -1.408,-4.67 -3.749,-9.037 -7.033,-13.078 -3.308,-4.053 -7.663,-7.627 -13.055,-10.772 -5.38,-3.121 -12.076,-5.299 -20.053,-6.521 L 0,0 z"
             id="path34"
             style="fill:#30333d;fill-opacity:1;fill-rule:nonzero;stroke:none" /></g><g
           transform="translate(143.728,252.0977)"
           id="g36"><path
             d="M 0,0 62.739,-36.333 88.37,-21.147 0.041,30.021 -88.446,-20.95 -63.443,-36.508 0,0 z"
             id="path38"
             style="fill:#30333d;fill-opacity:1;fill-rule:nonzero;stroke:none" /></g><g
           transform="translate(212.959,203.4902)"
           id="g40"><path
             d="M 0,0 -0.035,-25.224 -68.917,14.114 -95.864,-0.349 -0.082,-55.07 -0.099,-63.292 25.881,-79.455 26.01,15.442 0,0 z"
             id="path42"
             style="fill:#30333d;fill-opacity:1;fill-rule:nonzero;stroke:none" /></g><g
           transform="translate(143.5239,92.0918)"
           id="g44"><path
             d="M 0,0 -61.726,35.763 -87.351,20.554 -0.052,-30.01 87.573,20.414 62.559,36.008 0,0 z"
             id="path46"
             style="fill:#30333d;fill-opacity:1;fill-rule:nonzero;stroke:none" /></g><g
           transform="translate(74.3223,164.6885)"
           id="g48"><path
             d="M 0,0 68.614,-39.454 95.566,-24.991 0.041,29.894 0.046,38.278 -25.911,54.43 -26.033,-40.618 -0.029,-25.188 0,0 z"
             id="path50"
             style="fill:#30333d;fill-opacity:1;fill-rule:nonzero;stroke:none" /></g></g></g></g></svg>